<svg fill="#7c4dff" xmlns="http://www.w3.org/2000/svg" viewBox="0 0 50 50" width="50px" height="50px"><path d="M 22.71875 2 C 22.167969 2.078125 21.78125 2.589844 21.859375 3.140625 C 21.9375 3.691406 22.449219 4.078125 23 4 L 24 4 L 24 6.0625 C 22.136719 6.160156 20.339844 6.496094 18.65625 7.09375 L 18.28125 6.09375 L 18.71875 5.90625 C 19.1875 5.707031 19.433594 5.191406 19.289063 4.703125 C 19.144531 4.214844 18.65625 3.910156 18.15625 4 C 18.070313 4.019531 17.984375 4.050781 17.90625 4.09375 L 15.1875 5.28125 C 14.679688 5.503906 14.445313 6.101563 14.671875 6.609375 C 14.894531 7.117188 15.492188 7.347656 16 7.125 L 16.4375 6.9375 L 16.8125 7.875 C 15.167969 8.664063 13.65625 9.699219 12.3125 10.90625 L 10.875 9.4375 L 11.59375 8.71875 C 11.90625 8.421875 11.996094 7.957031 11.8125 7.566406 C 11.625 7.171875 11.210938 6.945313 10.78125 7 C 10.558594 7.023438 10.347656 7.125 10.1875 7.28125 L 7.28125 10.1875 C 6.894531 10.585938 6.898438 11.222656 7.296875 11.609375 C 7.695313 11.996094 8.332031 11.992188 8.71875 11.59375 L 9.4375 10.875 L 10.90625 12.3125 C 9.699219 13.65625 8.664063 15.167969 7.875 16.8125 L 6.9375 16.4375 L 7.125 16 C 7.285156 15.671875 7.257813 15.285156 7.050781 14.984375 C 6.839844 14.6875 6.488281 14.523438 6.125 14.5625 C 6.082031 14.570313 6.039063 14.582031 6 14.59375 C 5.675781 14.660156 5.410156 14.882813 5.28125 15.1875 L 4.09375 17.90625 C 3.894531 18.238281 3.90625 18.652344 4.117188 18.972656 C 4.332031 19.292969 4.710938 19.464844 5.09375 19.410156 C 5.472656 19.355469 5.792969 19.085938 5.90625 18.71875 L 6.09375 18.28125 L 7.09375 18.65625 C 6.496094 20.339844 6.160156 22.136719 6.0625 24 L 4 24 L 4 23 C 4.011719 22.710938 3.894531 22.433594 3.6875 22.238281 C 3.476563 22.039063 3.191406 21.941406 2.90625 21.96875 C 2.863281 21.976563 2.820313 21.988281 2.78125 22 C 2.316406 22.105469 1.988281 22.523438 2 23 L 2 27 C 1.996094 27.359375 2.183594 27.695313 2.496094 27.878906 C 2.808594 28.058594 3.191406 28.058594 3.503906 27.878906 C 3.816406 27.695313 4.003906 27.359375 4 27 L 4 26 L 6.0625 26 C 6.160156 27.863281 6.496094 29.660156 7.09375 31.34375 L 6.09375 31.71875 L 5.90625 31.28125 C 5.730469 30.878906 5.3125 30.636719 4.875 30.6875 C 4.558594 30.726563 4.285156 30.917969 4.128906 31.195313 C 3.976563 31.472656 3.960938 31.804688 4.09375 32.09375 L 5.28125 34.8125 C 5.503906 35.320313 6.101563 35.554688 6.609375 35.328125 C 7.117188 35.105469 7.347656 34.507813 7.125 34 L 6.9375 33.5625 L 7.875 33.1875 C 8.664063 34.828125 9.671875 36.347656 10.875 37.6875 L 9.4375 39.125 L 8.71875 38.40625 C 8.503906 38.175781 8.191406 38.058594 7.875 38.09375 C 7.484375 38.132813 7.152344 38.394531 7.027344 38.761719 C 6.898438 39.132813 7 39.542969 7.28125 39.8125 L 10.1875 42.71875 C 10.585938 43.105469 11.222656 43.101563 11.609375 42.703125 C 11.996094 42.304688 11.992188 41.667969 11.59375 41.28125 L 10.875 40.5625 L 12.3125 39.125 C 13.652344 40.328125 15.171875 41.335938 16.8125 42.125 L 16.4375 43.0625 L 16 42.875 C 15.855469 42.804688 15.691406 42.773438 15.53125 42.78125 C 15.046875 42.785156 14.636719 43.132813 14.550781 43.605469 C 14.46875 44.082031 14.734375 44.550781 15.1875 44.71875 L 17.90625 45.90625 C 18.238281 46.105469 18.652344 46.09375 18.972656 45.882813 C 19.292969 45.667969 19.464844 45.289063 19.410156 44.90625 C 19.355469 44.527344 19.085938 44.207031 18.71875 44.09375 L 18.28125 43.90625 L 18.65625 42.90625 C 20.339844 43.503906 22.136719 43.839844 24 43.9375 L 24 46 L 23 46 C 22.96875 46 22.9375 46 22.90625 46 C 22.875 46 22.84375 46 22.8125 46 C 22.261719 46.050781 21.855469 46.542969 21.90625 47.09375 C 21.957031 47.644531 22.449219 48.050781 23 48 L 27 48 C 27.359375 48.003906 27.695313 47.816406 27.878906 47.503906 C 28.058594 47.191406 28.058594 46.808594 27.878906 46.496094 C 27.695313 46.183594 27.359375 45.996094 27 46 L 26 46 L 26 43.9375 C 27.863281 43.839844 29.660156 43.503906 31.34375 42.90625 L 31.71875 43.90625 L 31.28125 44.09375 C 30.914063 44.207031 30.644531 44.527344 30.589844 44.90625 C 30.535156 45.289063 30.707031 45.667969 31.027344 45.882813 C 31.347656 46.09375 31.761719 46.105469 32.09375 45.90625 L 34.8125 44.71875 C 35.304688 44.554688 35.59375 44.039063 35.46875 43.535156 C 35.347656 43.027344 34.859375 42.699219 34.34375 42.78125 C 34.222656 42.792969 34.109375 42.824219 34 42.875 L 33.5625 43.0625 L 33.1875 42.125 C 34.832031 41.335938 36.34375 40.300781 37.6875 39.09375 L 39.125 40.5625 L 38.40625 41.28125 C 38.007813 41.667969 38.003906 42.304688 38.390625 42.703125 C 38.777344 43.101563 39.414063 43.105469 39.8125 42.71875 L 42.71875 39.8125 C 43.042969 39.511719 43.128906 39.035156 42.933594 38.640625 C 42.742188 38.242188 42.308594 38.023438 41.875 38.09375 C 41.648438 38.125 41.4375 38.238281 41.28125 38.40625 L 40.5625 39.125 L 39.09375 37.6875 C 40.300781 36.34375 41.335938 34.832031 42.125 33.1875 L 43.0625 33.5625 L 42.875 34 C 42.652344 34.507813 42.882813 35.105469 43.390625 35.328125 C 43.898438 35.554688 44.496094 35.320313 44.71875 34.8125 L 45.90625 32.09375 C 46.050781 31.769531 46.015625 31.394531 45.808594 31.105469 C 45.601563 30.816406 45.261719 30.65625 44.90625 30.6875 C 44.875 30.6875 44.84375 30.6875 44.8125 30.6875 C 44.488281 30.753906 44.222656 30.976563 44.09375 31.28125 L 43.90625 31.71875 L 42.90625 31.34375 C 43.503906 29.660156 43.839844 27.863281 43.9375 26 L 46 26 L 46 27 C 45.996094 27.359375 46.183594 27.695313 46.496094 27.878906 C 46.808594 28.058594 47.191406 28.058594 47.503906 27.878906 C 47.816406 27.695313 48.003906 27.359375 48 27 L 48 23 C 48.011719 22.710938 47.894531 22.433594 47.6875 22.238281 C 47.476563 22.039063 47.191406 21.941406 46.90625 21.96875 C 46.863281 21.976563 46.820313 21.988281 46.78125 22 C 46.316406 22.105469 45.988281 22.523438 46 23 L 46 24 L 43.9375 24 C 43.839844 22.136719 43.503906 20.339844 42.90625 18.65625 L 43.90625 18.28125 L 44.09375 18.71875 C 44.207031 19.085938 44.527344 19.355469 44.90625 19.410156 C 45.289063 19.464844 45.667969 19.292969 45.882813 18.972656 C 46.09375 18.652344 46.105469 18.238281 45.90625 17.90625 L 44.71875 15.1875 C 44.539063 14.773438 44.105469 14.527344 43.65625 14.59375 C 43.339844 14.632813 43.066406 14.824219 42.910156 15.101563 C 42.757813 15.378906 42.742188 15.710938 42.875 16 L 43.0625 16.4375 L 42.125 16.8125 C 41.335938 15.171875 40.328125 13.652344 39.125 12.3125 L 40.5625 10.875 L 41.28125 11.59375 C 41.667969 11.992188 42.304688 11.996094 42.703125 11.609375 C 43.101563 11.222656 43.105469 10.585938 42.71875 10.1875 L 39.8125 7.28125 C 39.625 7.082031 39.367188 6.972656 39.09375 6.96875 C 39.03125 6.972656 38.96875 6.984375 38.90625 7 C 38.53125 7.066406 38.230469 7.339844 38.125 7.703125 C 38.019531 8.070313 38.128906 8.460938 38.40625 8.71875 L 39.125 9.4375 L 37.6875 10.875 C 36.347656 9.671875 34.828125 8.664063 33.1875 7.875 L 33.5625 6.9375 L 34 7.125 C 34.507813 7.347656 35.105469 7.117188 35.328125 6.609375 C 35.554688 6.101563 35.320313 5.503906 34.8125 5.28125 L 32.09375 4.09375 C 31.917969 4.007813 31.722656 3.976563 31.53125 4 C 31.089844 4.066406 30.746094 4.417969 30.6875 4.859375 C 30.628906 5.300781 30.871094 5.726563 31.28125 5.90625 L 31.71875 6.09375 L 31.34375 7.09375 C 29.660156 6.496094 27.863281 6.160156 26 6.0625 L 26 4 L 27 4 C 27.359375 4.003906 27.695313 3.816406 27.878906 3.503906 C 28.058594 3.191406 28.058594 2.808594 27.878906 2.496094 C 27.695313 2.183594 27.359375 1.996094 27 2 L 23 2 C 22.96875 2 22.9375 2 22.90625 2 C 22.875 2 22.84375 2 22.8125 2 C 22.78125 2 22.75 2 22.71875 2 Z M 24.96875 11.96875 C 26.074219 11.96875 26.96875 12.863281 26.96875 13.96875 C 26.96875 15.074219 26.074219 15.96875 24.96875 15.96875 C 23.863281 15.96875 22.96875 15.074219 22.96875 13.96875 C 22.96875 12.863281 23.863281 11.96875 24.96875 11.96875 Z M 32.0625 15.875 C 33.167969 15.875 34.0625 16.769531 34.0625 17.875 C 34.0625 18.980469 33.167969 19.875 32.0625 19.875 C 30.957031 19.875 30.0625 18.980469 30.0625 17.875 C 30.0625 16.769531 30.960938 15.875 32.0625 15.875 Z M 17.90625 15.90625 C 19.011719 15.90625 19.90625 16.800781 19.90625 17.90625 C 19.90625 19.011719 19.011719 19.90625 17.90625 19.90625 C 16.800781 19.90625 15.90625 19.011719 15.90625 17.90625 C 15.90625 16.800781 16.800781 15.90625 17.90625 15.90625 Z M 13.96875 22.96875 C 15.074219 22.96875 15.96875 23.863281 15.96875 24.96875 C 15.96875 26.074219 15.074219 26.96875 13.96875 26.96875 C 12.863281 26.96875 11.96875 26.074219 11.96875 24.96875 C 11.96875 23.863281 12.863281 22.96875 13.96875 22.96875 Z M 24.96875 22.96875 C 26.074219 22.96875 26.96875 23.863281 26.96875 24.96875 C 26.96875 26.074219 26.074219 26.96875 24.96875 26.96875 C 23.863281 26.96875 22.96875 26.074219 22.96875 24.96875 C 22.96875 23.863281 23.863281 22.96875 24.96875 22.96875 Z M 36 23 C 37.105469 23 38 23.894531 38 25 C 38 26.105469 37.105469 27 36 27 C 34.894531 27 34 26.105469 34 25 C 34 23.894531 34.894531 23 36 23 Z M 17.875 30.0625 C 18.980469 30.0625 19.875 30.957031 19.875 32.0625 C 19.875 33.167969 18.980469 34.0625 17.875 34.0625 C 16.769531 34.0625 15.875 33.167969 15.875 32.0625 C 15.875 30.957031 16.769531 30.0625 17.875 30.0625 Z M 32.0625 30.0625 C 33.167969 30.0625 34.0625 30.957031 34.0625 32.0625 C 34.0625 33.167969 33.167969 34.0625 32.0625 34.0625 C 30.957031 34.0625 30.0625 33.167969 30.0625 32.0625 C 30.0625 30.957031 30.957031 30.0625 32.0625 30.0625 Z M 24.96875 33.96875 C 26.074219 33.96875 26.96875 34.863281 26.96875 35.96875 C 26.96875 37.074219 26.074219 37.96875 24.96875 37.96875 C 23.863281 37.96875 22.96875 37.074219 22.96875 35.96875 C 22.96875 34.863281 23.863281 33.96875 24.96875 33.96875 Z"/></svg>